<?xml version="1.0" encoding="UTF-8"?>
<svg xmlns="http://www.w3.org/2000/svg" style="stroke-dasharray:none; shape-rendering:auto; font-family:'Arial'; text-rendering:auto; fill-opacity:1; color-interpolation:auto; color-rendering:auto; font-size:12; fill:black; stroke:black; image-rendering:auto; stroke-miterlimit:10; stroke-linecap:square; stroke-linejoin:miter; font-style:normal; stroke-width:1; stroke-dashoffset:0; font-weight:normal; stroke-opacity:1;" contentScriptType="text/ecmascript" preserveAspectRatio="xMidYMid meet" zoomAndPan="magnify" version="1.0" contentStyleType="text/css" xml:xlink="http://www.w3.org/1999/xlink" width="1231" height="811"><rect x="10" y="10" width="1221" height="801" ry="0" rx="0" style="stroke:#000000; fill:#FFFFFF" /><rect x="40" y="650" width="1191" height="161" ry="0" rx="0" style="stroke:#000000; fill:#D0DAAE" /><g componentSequence="42"><text x="-730" y="47" transform="rotate(270)" text-anchor="middle" style="font-weight:bold;font-size:10px;stroke:none; fill:#434343"><tspan dy="14" x="-730">Compras</tspan></text></g><rect x="40" y="490" width="1191" height="160" ry="0" rx="0" style="stroke:#000000; fill:#ADC9AC" /><g componentSequence="10"><text x="-570" y="47" transform="rotate(270)" text-anchor="middle" style="font-weight:bold;font-size:10px;stroke:none; fill:#434343"><tspan dy="14" x="-570">Fiscal</tspan></text></g><rect x="40" y="330" width="1191" height="160" ry="0" rx="0" style="stroke:#000000; fill:#82B0B7" /><g componentSequence="9"><text x="-410" y="47" transform="rotate(270)" text-anchor="middle" style="font-weight:bold;font-size:10px;stroke:none; fill:#434343"><tspan dy="14" x="-410">Diretoria</tspan></text></g><rect x="40" y="170" width="1191" height="160" ry="0" rx="0" style="stroke:#000000; fill:#C0C0C0" /><g componentSequence="3"><text x="-250" y="47" transform="rotate(270)" text-anchor="middle" style="font-weight:bold;font-size:10px;stroke:none; fill:#434343"><tspan dy="14" x="-250">Gestores</tspan></text></g><rect x="40" y="10" width="1191" height="160" ry="0" rx="0" style="stroke:#000000; fill:#9F9F9F" /><g componentSequence="2"><text x="-90" y="47" transform="rotate(270)" text-anchor="middle" style="font-weight:bold;font-size:10px;stroke:none; fill:#434343"><tspan dy="14" x="-90">Usuário</tspan></text></g><g componentSequence="1"><text x="-410" y="17" transform="rotate(270)" text-anchor="middle" style="font-weight:bold;font-size:10px;stroke:none; fill:#434343"><tspan dy="14" x="-410">Portal de Notas</tspan></text></g><g sequence="4"><ellipse cx="159" cy="91" rx="17" ry="17" stroke-width="1" style="fill:url(#linearGradient66FF6696FF96B6FFB6_1153830953);" stroke="336633" /></g><g sequence="11"><rect x="310" y="217" width="106" height="70" ry="5" rx="5" style="fill:url(#linearGradientF8FBFEEDF5FCDEEDFAD4E7F8E2E5E9_1241638593);" stroke="191970" /></g><g componentSequence="11"><text x="363" y="232" text-anchor="middle" style="font-weight:bold;font-size:10px;stroke:none; fill:#333399"><tspan dy="14" x="363">Aprovação de</tspan><tspan dy="14" x="363">NFex</tspan></text></g><g sequence="13"><rect x="570" y="377" width="106" height="70" ry="5" rx="5" style="fill:url(#linearGradientF8FBFEEDF5FCDEEDFAD4E7F8E2E5E9_1312717657);" stroke="191970" /></g><g componentSequence="13"><text x="623" y="392" text-anchor="middle" style="font-weight:bold;font-size:10px;stroke:none; fill:#333399"><tspan dy="14" x="623">Aprovação de</tspan><tspan dy="14" x="623">NFex - Diretoria</tspan></text></g><g sequence="18"><ellipse cx="537" cy="571" rx="17" ry="17" stroke-width="3" style="fill:url(#linearGradientFF6666FF9696FFB6B6_188542202);" stroke="993333" /></g><g sequence="33"><ellipse cx="857" cy="571" rx="17" ry="17" stroke-width="3" style="fill:url(#linearGradientFF6666FF9696FFB6B6_2131747564);" stroke="993333" /></g><g sequence="35"><rect x="300" y="544" width="106" height="56" ry="5" rx="5" style="fill:url(#linearGradientF8FBFEEDF5FCDEEDFAD4E7F8E2E5E9_989668386);" stroke="191970" /></g><g componentSequence="35"><text x="353" y="561" text-anchor="middle" style="font-weight:bold;font-size:10px;stroke:none; fill:#333399"><tspan dy="14" x="353">Lançamento</tspan></text></g><g sequence="43"><rect x="300" y="698" width="106" height="70" ry="5" rx="5" style="fill:url(#linearGradientF8FBFEEDF5FCDEEDFAD4E7F8E2E5E9_119829655);" stroke="191970" /></g><g componentSequence="43"><text x="353" y="713" text-anchor="middle" style="font-weight:bold;font-size:10px;stroke:none; fill:#333399"><tspan dy="14" x="353">Ajustar Ordem</tspan><tspan dy="14" x="353">de Compra</tspan></text></g><g sequence="56"><polygon points=" 200 391 230 361 260 391 230 421 200 391" style="fill:url(#linearGradientFAFBFCFFFFCC_1796412341);" stroke="000000" /></g><g componentSequence="56"><text x="230" y="431" text-anchor="middle" style="font-weight:bold;font-size:10px;stroke:none; fill:#333399"><tspan dy="14" x="230">Triagem</tspan><tspan dy="14" x="230">Fiscal</tspan></text></g><g sequence="66"><polygon points=" 130 551 160 521 190 551 160 581 130 551" style="fill:url(#linearGradientFAFBFCFFFFCC_1804305593);" stroke="000000" /></g><g componentSequence="66"><text x="160" y="591" text-anchor="middle" style="font-weight:bold;font-size:10px;stroke:none; fill:#333399"><tspan dy="14" x="160">Triage</tspan><tspan dy="14" x="160">m</tspan><tspan dy="14" x="160">Ret...</tspan></text></g><g sequence="72"><rect x="650" y="537" width="106" height="70" ry="5" rx="5" style="fill:url(#linearGradientF8FBFEEDF5FCDEEDFAD4E7F8E2E5E9_948203998);" stroke="191970" /></g><g componentSequence="72"><text x="703" y="552" text-anchor="middle" style="font-weight:bold;font-size:10px;stroke:none; fill:#333399"><tspan dy="14" x="703">Analise Recusa</tspan><tspan dy="14" x="703">Fiscal</tspan></text></g><g sequence="76"><polygon points=" 460 224 490 194 520 224 490 254 460 224" style="fill:url(#linearGradientFAFBFCFFFFCC_471874197);" stroke="000000" /></g><g componentSequence="76"><text x="490" y="264" text-anchor="middle" style="font-weight:bold;font-size:10px;stroke:none; fill:#333399"><tspan dy="14" x="490">Aprova</tspan><tspan dy="14" x="490">ç</tspan><tspan dy="14" x="490">ão...</tspan></text></g><g sequence="79"><rect x="437" y="370" width="106" height="84" ry="5" rx="5" style="fill:url(#linearGradientF8FBFEEDF5FCDEEDFAD4E7F8E2E5E9_1868368927);" stroke="191970" /></g><g componentSequence="79"><text x="490" y="385" text-anchor="middle" style="font-weight:bold;font-size:10px;stroke:none; fill:#333399"><tspan dy="14" x="490">Aprovação de</tspan><tspan dy="14" x="490">NFex - Gerência</tspan><tspan dy="14" x="490">Fiscal</tspan></text></g><g sequence="81"><rect x="310" y="363" width="106" height="98" ry="5" rx="5" style="fill:url(#linearGradientF8FBFEEDF5FCDEEDFAD4E7F8E2E5E9_1480913665);" stroke="191970" /></g><g componentSequence="81"><text x="363" y="378" text-anchor="middle" style="font-weight:bold;font-size:10px;stroke:none; fill:#333399"><tspan dy="14" x="363">Aprovação de</tspan><tspan dy="14" x="363">NFex -</tspan><tspan dy="14" x="363">Liderança Fiscal</tspan></text></g><g componentSequence="37"><text x="473" y="571" style="font-size:10px;font-weight:none;stroke:none; fill:#333399" text-anchor="left" /></g><g componentSequence="59"><text x="169" y="280" style="font-size:10px;font-weight:none;stroke:none; fill:#333399" text-anchor="left" /></g><g componentSequence="61"><text x="432" y="476" style="font-size:10px;font-weight:none;stroke:none; fill:#333399" text-anchor="left" /></g><g componentSequence="63"><text x="342" y="91" style="font-size:10px;font-weight:none;stroke:none; fill:#333399" text-anchor="left" /></g><g componentSequence="67"><text x="255" y="576" style="font-size:10px;font-weight:none;stroke:none; fill:#333399" text-anchor="left" /></g><g componentSequence="68"><text x="169" y="315" style="font-size:10px;font-weight:none;stroke:none; fill:#333399" text-anchor="left" /></g><g componentSequence="69"><text x="306" y="497" style="font-size:10px;font-weight:none;stroke:none; fill:#333399" text-anchor="left" /></g><g componentSequence="70"><text x="363" y="649" style="font-size:10px;font-weight:none;stroke:none; fill:#333399" text-anchor="left" /></g><g componentSequence="71"><text x="240" y="632" style="font-size:10px;font-weight:none;stroke:none; fill:#333399" text-anchor="left" /></g><g componentSequence="73"><text x="632" y="523" style="font-size:10px;font-weight:none;stroke:none; fill:#333399" text-anchor="left" /></g><g componentSequence="74"><text x="808" y="571" style="font-size:10px;font-weight:none;stroke:none; fill:#333399" text-anchor="left" /></g><g componentSequence="75"><text x="672" y="91" style="font-size:10px;font-weight:none;stroke:none; fill:#333399" text-anchor="left" /></g><g componentSequence="77"><text x="448" y="252" style="font-size:10px;font-weight:none;stroke:none; fill:#333399" text-anchor="left" /></g><g componentSequence="78"><text x="601" y="312" style="font-size:10px;font-weight:none;stroke:none; fill:#333399" text-anchor="left" /></g><g componentSequence="80"><text x="500" y="340" style="font-size:10px;font-weight:none;stroke:none; fill:#333399" text-anchor="left" /></g><g componentSequence="82"><text x="406" y="308" style="font-size:10px;font-weight:none;stroke:none; fill:#333399" text-anchor="left" /></g><g componentSequence="83"><text x="363" y="476" style="font-size:10px;font-weight:none;stroke:none; fill:#333399" text-anchor="left" /></g><g componentSequence="84"><text x="295" y="412" style="font-size:10px;font-weight:none;stroke:none; fill:#333399" text-anchor="left" /></g><g componentSequence="85"><text x="556" y="476" style="font-size:10px;font-weight:none;stroke:none; fill:#333399" text-anchor="left" /></g><g componentSequence="86"><text x="615" y="476" style="font-size:10px;font-weight:none;stroke:none; fill:#333399" text-anchor="left" /></g><g componentSequence="87"><text x="711" y="199" style="font-size:10px;font-weight:none;stroke:none; fill:#333399" text-anchor="left" /></g><g componentSequence="88"><text x="711" y="138" style="font-size:10px;font-weight:none;stroke:none; fill:#333399" text-anchor="left" /></g><g componentSequence="89"><text x="694" y="91" style="font-size:10px;font-weight:none;stroke:none; fill:#333399" text-anchor="left" /></g><path style="fill:none; stroke:#000000;stroke-width:1" d="M159.0 109.0 L159.0 411.0 L199.0 411.0" /><polygon style="fill:#000000; stroke:#000000;" points=" 189 406 199 411 189 416 191 411" /><path style="fill:none; stroke:#F00000;stroke-width:1" d="M177.0 91.0 L362.0 91.0 L362.0 216.0" /><polygon style="fill:#F00000; stroke:#F00000;" points=" 367 206 362 216 357 206 362 208" /><polygon style="fill:#F00000; stroke:#F00000;" points=" 187 96 177 91 187 86 185 91" /><path style="fill:none; stroke:#000000;stroke-width:1" d="M159.0 520.0 L159.0 108.0" /><polygon style="fill:#000000; stroke:#000000;" points=" 154 118 159 108 164 118 159 116" /><path style="fill:none; stroke:#000000;stroke-width:1" d="M702.0 536.0 L702.0 91.0 L177.0 91.0" /><polygon style="fill:#000000; stroke:#000000;" points=" 187 96 177 91 187 86 185 91" /><path style="fill:none; stroke:#F00000;stroke-width:1" d="M363.0 461.0 L363.0 477.0 L701.0 477.0 L701.0 91.0 L177.0 91.0" /><polygon style="fill:#F00000; stroke:#F00000;" points=" 187 96 177 91 187 86 185 91" /><polygon style="fill:#F00000; stroke:#F00000;" points=" 358 471 363 461 368 471 363 469" /><path style="fill:none; stroke:#F00000;stroke-width:1" d="M490.0 454.0 L490.0 476.0 L701.0 476.0 L701.0 91.0 L177.0 91.0" /><polygon style="fill:#F00000; stroke:#F00000;" points=" 187 96 177 91 187 86 185 91" /><polygon style="fill:#F00000; stroke:#F00000;" points=" 485 464 490 454 495 464 490 462" /><path style="fill:none; stroke:#F00000;stroke-width:1" d="M623.0 447.0 L623.0 475.0 L701.0 475.0 L701.0 91.0 L177.0 91.0" /><polygon style="fill:#F00000; stroke:#F00000;" points=" 187 96 177 91 187 86 185 91" /><polygon style="fill:#F00000; stroke:#F00000;" points=" 618 457 623 447 628 457 623 455" /><path style="fill:none; stroke:#000000;stroke-width:1" d="M416.0 252.0 L459.0 252.0" /><polygon style="fill:#000000; stroke:#000000;" points=" 449 247 459 252 449 257 451 252" /><path style="fill:none; stroke:#000000;stroke-width:1" d="M622.0 447.0 L622.0 476.0 L298.0 476.0 L298.0 410.0 L260.0 411.0" /><polygon style="fill:#000000; stroke:#000000;" points=" 270 416 260 411 270 406 268 411" /><path style="fill:none; stroke:#000000;stroke-width:1" d="M622.0 447.0 L622.0 571.0 L649.0 571.0" /><polygon style="fill:#000000; stroke:#000000;" points=" 639 566 649 571 639 576 641 571" /><path style="fill:none; stroke:#000000;stroke-width:1" d="M520.0 270.0 L622.0 330.0 L622.0 376.0" /><polygon style="fill:#000000; stroke:#000000;" points=" 627 366 622 376 617 366 622 368" /><path style="fill:none; stroke:#000000;stroke-width:1" d="M406.0 571.0 L520.0 571.0" /><polygon style="fill:#000000; stroke:#000000;" points=" 510 566 520 571 510 576 512 571" /><path style="fill:none; stroke:#000000;stroke-width:1" d="M756.0 571.0 L840.0 571.0" /><polygon style="fill:#000000; stroke:#000000;" points=" 830 566 840 571 830 576 832 571" /><path style="fill:none; stroke:#000000;stroke-width:1" d="M299.0 574.0 L190.0 577.0" /><polygon style="fill:#000000; stroke:#000000;" points=" 200 582 190 577 200 572 198 577" /><path style="fill:none; stroke:#000000;stroke-width:1" d="M353.0 600.0 L353.0 697.0" /><polygon style="fill:#000000; stroke:#000000;" points=" 358 687 353 697 348 687 353 689" /><path style="fill:none; stroke:#000000;stroke-width:1" d="M260.0 451.0 L331.0 543.0" /><polygon style="fill:#000000; stroke:#000000;" points=" 329 532 331 543 321 538 326 537" /><path style="fill:none; stroke:#000000;stroke-width:1" d="M299.0 732.0 L230.0 732.0 L230.0 463.0" /><polygon style="fill:#000000; stroke:#000000;" points=" 225 473 230 463 235 473 230 471" /><path style="fill:none; stroke:#000000;stroke-width:1" d="M489.0 454.0 L488.0 476.0 L298.0 476.0 L298.0 411.0 L260.0 411.0" /><polygon style="fill:#000000; stroke:#000000;" points=" 270 416 260 411 270 406 268 411" /><path style="fill:none; stroke:#000000;stroke-width:1" d="M309.0 412.0 L260.0 412.0" /><polygon style="fill:#000000; stroke:#000000;" points=" 270 417 260 412 270 407 268 412" /><path style="fill:none; stroke:#000000;stroke-width:1" d="M362.0 461.0 L362.0 476.0 L622.0 476.0 L622.0 572.0 L649.0 572.0" /><polygon style="fill:#000000; stroke:#000000;" points=" 639 567 649 572 639 577 641 572" /><path style="fill:none; stroke:#000000;stroke-width:1" d="M489.0 454.0 L488.0 477.0 L622.0 476.0 L622.0 572.0 L649.0 572.0" /><polygon style="fill:#000000; stroke:#000000;" points=" 639 567 649 572 639 577 641 572" /><path style="fill:none; stroke:#000000;stroke-width:1" d="M490.0 310.0 L490.0 369.0" /><polygon style="fill:#000000; stroke:#000000;" points=" 495 359 490 369 485 359 490 361" /><path style="fill:none; stroke:#000000;stroke-width:1" d="M459.0 270.0 L363.0 328.0 L363.0 362.0" /><polygon style="fill:#000000; stroke:#000000;" points=" 368 352 363 362 358 352 363 354" /><defs><linearGradient xmlns:xlink="http://www.w3.org/1999/xlink" xlink:href="#linearGradient66FF6696FF96B6FFB6" id="linearGradient66FF6696FF96B6FFB6_1153830953" x1="0" y1="74.0" x2="0" y2="109.0" gradientUnits="userSpaceOnUse" xlink:type="simple" xlink:actuate="onLoad" xlink:show="other" /><linearGradient id="linearGradient66FF6696FF96B6FFB6"><stop style="stop-color:#66FF66;stop-opacity:1;" offset="0.0" id="stop66FF66" /><stop style="stop-color:#96FF96;stop-opacity:1;" offset="0.5" id="stop96FF96" /><stop style="stop-color:#B6FFB6;stop-opacity:1;" offset="1.0" id="stopB6FFB6" /></linearGradient><linearGradient xmlns:xlink="http://www.w3.org/1999/xlink" xlink:href="#linearGradientF8FBFEEDF5FCDEEDFAD4E7F8E2E5E9" id="linearGradientF8FBFEEDF5FCDEEDFAD4E7F8E2E5E9_1241638593" x1="0" y1="217.0" x2="0" y2="323.0" gradientUnits="userSpaceOnUse" xlink:type="simple" xlink:actuate="onLoad" xlink:show="other" /><linearGradient id="linearGradientF8FBFEEDF5FCDEEDFAD4E7F8E2E5E9"><stop style="stop-color:#F8FBFE;stop-opacity:1;" offset="0.0" id="stopF8FBFE" /><stop style="stop-color:#EDF5FC;stop-opacity:1;" offset="0.25" id="stopEDF5FC" /><stop style="stop-color:#DEEDFA;stop-opacity:1;" offset="0.5" id="stopDEEDFA" /><stop style="stop-color:#D4E7F8;stop-opacity:1;" offset="0.75" id="stopD4E7F8" /><stop style="stop-color:#E2E5E9;stop-opacity:1;" offset="1.0" id="stopE2E5E9" /></linearGradient><linearGradient xmlns:xlink="http://www.w3.org/1999/xlink" xlink:href="#linearGradientF8FBFEEDF5FCDEEDFAD4E7F8E2E5E9" id="linearGradientF8FBFEEDF5FCDEEDFAD4E7F8E2E5E9_1312717657" x1="0" y1="377.0" x2="0" y2="483.0" gradientUnits="userSpaceOnUse" xlink:type="simple" xlink:actuate="onLoad" xlink:show="other" /><linearGradient xmlns:xlink="http://www.w3.org/1999/xlink" xlink:href="#linearGradientFF6666FF9696FFB6B6" id="linearGradientFF6666FF9696FFB6B6_188542202" x1="0" y1="554.0" x2="0" y2="589.0" gradientUnits="userSpaceOnUse" xlink:type="simple" xlink:actuate="onLoad" xlink:show="other" /><linearGradient id="linearGradientFF6666FF9696FFB6B6"><stop style="stop-color:#FF6666;stop-opacity:1;" offset="0.0" id="stopFF6666" /><stop style="stop-color:#FF9696;stop-opacity:1;" offset="0.5" id="stopFF9696" /><stop style="stop-color:#FFB6B6;stop-opacity:1;" offset="1.0" id="stopFFB6B6" /></linearGradient><linearGradient xmlns:xlink="http://www.w3.org/1999/xlink" xlink:href="#linearGradientFF6666FF9696FFB6B6" id="linearGradientFF6666FF9696FFB6B6_2131747564" x1="0" y1="554.0" x2="0" y2="589.0" gradientUnits="userSpaceOnUse" xlink:type="simple" xlink:actuate="onLoad" xlink:show="other" /><linearGradient xmlns:xlink="http://www.w3.org/1999/xlink" xlink:href="#linearGradientF8FBFEEDF5FCDEEDFAD4E7F8E2E5E9" id="linearGradientF8FBFEEDF5FCDEEDFAD4E7F8E2E5E9_989668386" x1="0" y1="544.0" x2="0" y2="650.0" gradientUnits="userSpaceOnUse" xlink:type="simple" xlink:actuate="onLoad" xlink:show="other" /><linearGradient xmlns:xlink="http://www.w3.org/1999/xlink" xlink:href="#linearGradientF8FBFEEDF5FCDEEDFAD4E7F8E2E5E9" id="linearGradientF8FBFEEDF5FCDEEDFAD4E7F8E2E5E9_119829655" x1="0" y1="698.0" x2="0" y2="804.0" gradientUnits="userSpaceOnUse" xlink:type="simple" xlink:actuate="onLoad" xlink:show="other" /><linearGradient xmlns:xlink="http://www.w3.org/1999/xlink" xlink:href="#linearGradientFAFBFCFFFFCC" id="linearGradientFAFBFCFFFFCC_1796412341" x1="0" y1="361.0" x2="0" y2="421.0" gradientUnits="userSpaceOnUse" xlink:type="simple" xlink:actuate="onLoad" xlink:show="other" /><linearGradient id="linearGradientFAFBFCFFFFCC"><stop style="stop-color:#FAFBFC;stop-opacity:1;" offset="0.0" id="stopFAFBFC" /><stop style="stop-color:#FFFFCC;stop-opacity:1;" offset="1.0" id="stopFFFFCC" /></linearGradient><linearGradient xmlns:xlink="http://www.w3.org/1999/xlink" xlink:href="#linearGradientFAFBFCFFFFCC" id="linearGradientFAFBFCFFFFCC_1804305593" x1="0" y1="521.0" x2="0" y2="581.0" gradientUnits="userSpaceOnUse" xlink:type="simple" xlink:actuate="onLoad" xlink:show="other" /><linearGradient xmlns:xlink="http://www.w3.org/1999/xlink" xlink:href="#linearGradientF8FBFEEDF5FCDEEDFAD4E7F8E2E5E9" id="linearGradientF8FBFEEDF5FCDEEDFAD4E7F8E2E5E9_948203998" x1="0" y1="537.0" x2="0" y2="643.0" gradientUnits="userSpaceOnUse" xlink:type="simple" xlink:actuate="onLoad" xlink:show="other" /><linearGradient xmlns:xlink="http://www.w3.org/1999/xlink" xlink:href="#linearGradientFAFBFCFFFFCC" id="linearGradientFAFBFCFFFFCC_471874197" x1="0" y1="194.0" x2="0" y2="254.0" gradientUnits="userSpaceOnUse" xlink:type="simple" xlink:actuate="onLoad" xlink:show="other" /><linearGradient xmlns:xlink="http://www.w3.org/1999/xlink" xlink:href="#linearGradientF8FBFEEDF5FCDEEDFAD4E7F8E2E5E9" id="linearGradientF8FBFEEDF5FCDEEDFAD4E7F8E2E5E9_1868368927" x1="0" y1="370.0" x2="0" y2="476.0" gradientUnits="userSpaceOnUse" xlink:type="simple" xlink:actuate="onLoad" xlink:show="other" /><linearGradient xmlns:xlink="http://www.w3.org/1999/xlink" xlink:href="#linearGradientF8FBFEEDF5FCDEEDFAD4E7F8E2E5E9" id="linearGradientF8FBFEEDF5FCDEEDFAD4E7F8E2E5E9_1480913665" x1="0" y1="363.0" x2="0" y2="469.0" gradientUnits="userSpaceOnUse" xlink:type="simple" xlink:actuate="onLoad" xlink:show="other" /></defs></svg>
