<?xml version="1.0" encoding="UTF-8"?>
<svg xmlns="http://www.w3.org/2000/svg" style="stroke-dasharray:none; shape-rendering:auto; font-family:'Arial'; text-rendering:auto; fill-opacity:1; color-interpolation:auto; color-rendering:auto; font-size:12; fill:black; stroke:black; image-rendering:auto; stroke-miterlimit:10; stroke-linecap:square; stroke-linejoin:miter; font-style:normal; stroke-width:1; stroke-dashoffset:0; font-weight:normal; stroke-opacity:1;" contentScriptType="text/ecmascript" preserveAspectRatio="xMidYMid meet" zoomAndPan="magnify" version="1.0" contentStyleType="text/css" xml:xlink="http://www.w3.org/1999/xlink" width="911" height="601"><rect x="10" y="10" width="901" height="591" ry="0" rx="0" style="stroke:#000000; fill:#FFFFFF" /><rect x="40" y="451" width="871" height="150" ry="0" rx="0" style="stroke:#000000; fill:#ADC9AC" /><g componentSequence="10"><text x="-526" y="47" transform="rotate(270)" text-anchor="middle" style="font-weight:bold;font-size:10px;stroke:none; fill:#434343"><tspan dy="14" x="-526">Fiscal</tspan></text></g><rect x="40" y="304" width="871" height="147" ry="0" rx="0" style="stroke:#000000; fill:#82B0B7" /><g componentSequence="9"><text x="-377" y="47" transform="rotate(270)" text-anchor="middle" style="font-weight:bold;font-size:10px;stroke:none; fill:#434343"><tspan dy="14" x="-377">Diretoria</tspan></text></g><rect x="40" y="157" width="871" height="147" ry="0" rx="0" style="stroke:#000000; fill:#C0C0C0" /><g componentSequence="3"><text x="-230" y="47" transform="rotate(270)" text-anchor="middle" style="font-weight:bold;font-size:10px;stroke:none; fill:#434343"><tspan dy="14" x="-230">Gestores</tspan></text></g><rect x="40" y="10" width="871" height="147" ry="0" rx="0" style="stroke:#000000; fill:#9F9F9F" /><g componentSequence="2"><text x="-83" y="47" transform="rotate(270)" text-anchor="middle" style="font-weight:bold;font-size:10px;stroke:none; fill:#434343"><tspan dy="14" x="-83">Usuário</tspan></text></g><g componentSequence="1"><text x="-305" y="17" transform="rotate(270)" text-anchor="middle" style="font-weight:bold;font-size:10px;stroke:none; fill:#434343"><tspan dy="14" x="-305">Portal de Notas</tspan></text></g><g sequence="4"><ellipse cx="162" cy="77" rx="17" ry="17" stroke-width="1" style="fill:url(#linearGradient66FF6696FF96B6FFB6_16117834);" stroke="336633" /></g><g sequence="11"><rect x="300" y="197" width="106" height="70" ry="5" rx="5" style="fill:url(#linearGradientF8FBFEEDF5FCDEEDFAD4E7F8E2E5E9_3276900);" stroke="191970" /></g><g componentSequence="11"><text x="353" y="212" text-anchor="middle" style="font-weight:bold;font-size:10px;stroke:none; fill:#333399"><tspan dy="14" x="353">Aprovação de</tspan><tspan dy="14" x="353">NFex</tspan></text></g><g sequence="13"><rect x="300" y="344" width="106" height="70" ry="5" rx="5" style="fill:url(#linearGradientF8FBFEEDF5FCDEEDFAD4E7F8E2E5E9_891706);" stroke="191970" /></g><g componentSequence="13"><text x="353" y="359" text-anchor="middle" style="font-weight:bold;font-size:10px;stroke:none; fill:#333399"><tspan dy="14" x="353">Aprovação de</tspan><tspan dy="14" x="353">NFex</tspan></text></g><g sequence="18"><ellipse cx="867" cy="527" rx="17" ry="17" stroke-width="3" style="fill:url(#linearGradientFF6666FF9696FFB6B6_17762911);" stroke="993333" /></g><g sequence="22"><polygon points=" 132 507 162 477 192 507 162 537 132 507" style="fill:url(#linearGradientFAFBFCFFFFCC_10865172);" stroke="000000" /></g><g componentSequence="22"><text x="162" y="547" text-anchor="middle" style="font-weight:bold;font-size:10px;stroke:none; fill:#333399"><tspan dy="14" x="162">Triagem</tspan><tspan dy="14" x="162">Fiscal</tspan></text></g><g sequence="25"><rect x="430" y="493" width="106" height="70" ry="5" rx="5" style="fill:url(#linearGradientF8FBFEEDF5FCDEEDFAD4E7F8E2E5E9_16308036);" stroke="191970" /></g><g componentSequence="25"><text x="483" y="508" text-anchor="middle" style="font-weight:bold;font-size:10px;stroke:none; fill:#333399"><tspan dy="14" x="483">Lançamento</tspan><tspan dy="14" x="483">Filiais 4,5,9</tspan></text></g><g sequence="27"><rect x="560" y="493" width="106" height="70" ry="5" rx="5" style="fill:url(#linearGradientF8FBFEEDF5FCDEEDFAD4E7F8E2E5E9_12077482);" stroke="191970" /></g><g componentSequence="27"><text x="613" y="508" text-anchor="middle" style="font-weight:bold;font-size:10px;stroke:none; fill:#333399"><tspan dy="14" x="613">Lançamento</tspan><tspan dy="14" x="613">Filial 1</tspan></text></g><g sequence="33"><ellipse cx="537" cy="378" rx="17" ry="17" stroke-width="3" style="fill:url(#linearGradientFF6666FF9696FFB6B6_18937104);" stroke="993333" /></g><g sequence="35"><rect x="300" y="493" width="106" height="70" ry="5" rx="5" style="fill:url(#linearGradientF8FBFEEDF5FCDEEDFAD4E7F8E2E5E9_26960330);" stroke="191970" /></g><g componentSequence="35"><text x="353" y="508" text-anchor="middle" style="font-weight:bold;font-size:10px;stroke:none; fill:#333399"><tspan dy="14" x="353">Lançamento</tspan><tspan dy="14" x="353">Filiais 6,7,8</tspan></text></g><g componentSequence="14"><text x="363" y="305" style="font-size:10px;font-weight:none;stroke:none; fill:#333399" text-anchor="left" /></g><g componentSequence="23"><text x="172" y="286" style="font-size:10px;font-weight:none;stroke:none; fill:#333399" text-anchor="left" /></g><g componentSequence="26"><text x="349" y="576" style="font-size:10px;font-weight:none;stroke:none; fill:#333399" text-anchor="left" /></g><g componentSequence="28"><text x="423" y="594" style="font-size:10px;font-weight:none;stroke:none; fill:#333399" text-anchor="left" /></g><g componentSequence="29"><text x="675" y="481" style="font-size:10px;font-weight:none;stroke:none; fill:#333399" text-anchor="left" /></g><g componentSequence="30"><text x="768" y="527" style="font-size:10px;font-weight:none;stroke:none; fill:#333399" text-anchor="left" /></g><g componentSequence="31"><text x="172" y="286" style="font-size:10px;font-weight:none;stroke:none; fill:#333399" text-anchor="left" /></g><g componentSequence="32"><text x="212" y="381" style="font-size:10px;font-weight:none;stroke:none; fill:#333399" text-anchor="left" /></g><g componentSequence="34"><text x="473" y="378" style="font-size:10px;font-weight:none;stroke:none; fill:#333399" text-anchor="left" /></g><g componentSequence="36"><text x="256" y="528" style="font-size:10px;font-weight:none;stroke:none; fill:#333399" text-anchor="left" /></g><g componentSequence="38"><text x="336" y="77" style="font-size:10px;font-weight:none;stroke:none; fill:#333399" text-anchor="left" /></g><g componentSequence="37"><text x="628" y="466" style="font-size:10px;font-weight:none;stroke:none; fill:#333399" text-anchor="left" /></g><path style="fill:none; stroke:#000000;stroke-width:1" d="M162.0 95.0 L162.0 476.0" /><polygon style="fill:#000000; stroke:#000000;" points=" 167 466 162 476 157 466 162 468" /><path style="fill:none; stroke:#000000;stroke-width:1" d="M162.0 476.0 L162.0 95.0" /><polygon style="fill:#000000; stroke:#000000;" points=" 157 105 162 95 167 105 162 103" /><path style="fill:none; stroke:#F00000;stroke-width:1" d="M353.0 267.0 L353.0 343.0" /><polygon style="fill:#F00000; stroke:#F00000;" points=" 358 333 353 343 348 333 353 335" /><polygon style="fill:#F00000; stroke:#F00000;" points=" 348 277 353 267 358 277 353 275" /><path style="fill:none; stroke:#000000;stroke-width:1" d="M299.0 379.0 L203.0 379.0 L176.0 476.0" /><polygon style="fill:#000000; stroke:#000000;" points=" 183 468 176 476 174 465 178 468" /><path style="fill:none; stroke:#000000;stroke-width:1" d="M406.0 378.0 L520.0 378.0" /><polygon style="fill:#000000; stroke:#000000;" points=" 510 373 520 378 510 383 512 378" /><path style="fill:none; stroke:#000000;stroke-width:1" d="M482.0 492.0 L482.0 481.0 L796.0 481.0 L852.0 518.0" /><polygon style="fill:#000000; stroke:#000000;" points=" 846 508 852 518 841 517 845 514" /><path style="fill:none; stroke:#000000;stroke-width:1" d="M666.0 527.0 L850.0 527.0" /><polygon style="fill:#000000; stroke:#000000;" points=" 840 522 850 527 840 532 842 527" /><path style="fill:none; stroke:#000000;stroke-width:1" d="M352.0 492.0 L352.0 466.0 L867.0 466.0 L867.0 509.0" /><polygon style="fill:#000000; stroke:#000000;" points=" 872 499 867 509 862 499 867 501" /><path style="fill:none; stroke:#F00000;stroke-width:1" d="M192.0 544.0 L250.0 576.0 L482.0 576.0 L482.0 563.0" /><polygon style="fill:#F00000; stroke:#F00000;" points=" 477 573 482 563 487 573 482 571" /><polygon style="fill:#F00000; stroke:#F00000;" points=" 198 553 192 544 203 544 199 548" /><path style="fill:none; stroke:#F00000;stroke-width:1" d="M192.0 557.0 L231.0 594.0 L617.0 594.0 L615.0 563.0" /><polygon style="fill:#F00000; stroke:#F00000;" points=" 611 573 615 563 621 573 616 571" /><polygon style="fill:#F00000; stroke:#F00000;" points=" 196 568 192 557 203 560 198 563" /><path style="fill:none; stroke:#F00000;stroke-width:1" d="M192.0 528.0 L299.0 528.0" /><polygon style="fill:#F00000; stroke:#F00000;" points=" 289 523 299 528 289 533 291 528" /><polygon style="fill:#F00000; stroke:#F00000;" points=" 202 533 192 528 202 523 200 528" /><path style="fill:none; stroke:#F00000;stroke-width:1" d="M180.0 77.0 L352.0 77.0 L352.0 196.0" /><polygon style="fill:#F00000; stroke:#F00000;" points=" 357 186 352 196 347 186 352 188" /><polygon style="fill:#F00000; stroke:#F00000;" points=" 190 82 180 77 190 72 188 77" /><defs><linearGradient xmlns:xlink="http://www.w3.org/1999/xlink" xlink:href="#linearGradient66FF6696FF96B6FFB6" id="linearGradient66FF6696FF96B6FFB6_16117834" x1="0" y1="60.0" x2="0" y2="95.0" gradientUnits="userSpaceOnUse" xlink:type="simple" xlink:actuate="onLoad" xlink:show="other" /><linearGradient id="linearGradient66FF6696FF96B6FFB6"><stop style="stop-color:#66FF66;stop-opacity:1;" offset="0.0" id="stop66FF66" /><stop style="stop-color:#96FF96;stop-opacity:1;" offset="0.5" id="stop96FF96" /><stop style="stop-color:#B6FFB6;stop-opacity:1;" offset="1.0" id="stopB6FFB6" /></linearGradient><linearGradient xmlns:xlink="http://www.w3.org/1999/xlink" xlink:href="#linearGradientF8FBFEEDF5FCDEEDFAD4E7F8E2E5E9" id="linearGradientF8FBFEEDF5FCDEEDFAD4E7F8E2E5E9_3276900" x1="0" y1="197.0" x2="0" y2="303.0" gradientUnits="userSpaceOnUse" xlink:type="simple" xlink:actuate="onLoad" xlink:show="other" /><linearGradient id="linearGradientF8FBFEEDF5FCDEEDFAD4E7F8E2E5E9"><stop style="stop-color:#F8FBFE;stop-opacity:1;" offset="0.0" id="stopF8FBFE" /><stop style="stop-color:#EDF5FC;stop-opacity:1;" offset="0.25" id="stopEDF5FC" /><stop style="stop-color:#DEEDFA;stop-opacity:1;" offset="0.5" id="stopDEEDFA" /><stop style="stop-color:#D4E7F8;stop-opacity:1;" offset="0.75" id="stopD4E7F8" /><stop style="stop-color:#E2E5E9;stop-opacity:1;" offset="1.0" id="stopE2E5E9" /></linearGradient><linearGradient xmlns:xlink="http://www.w3.org/1999/xlink" xlink:href="#linearGradientF8FBFEEDF5FCDEEDFAD4E7F8E2E5E9" id="linearGradientF8FBFEEDF5FCDEEDFAD4E7F8E2E5E9_891706" x1="0" y1="344.0" x2="0" y2="450.0" gradientUnits="userSpaceOnUse" xlink:type="simple" xlink:actuate="onLoad" xlink:show="other" /><linearGradient xmlns:xlink="http://www.w3.org/1999/xlink" xlink:href="#linearGradientFF6666FF9696FFB6B6" id="linearGradientFF6666FF9696FFB6B6_17762911" x1="0" y1="510.0" x2="0" y2="545.0" gradientUnits="userSpaceOnUse" xlink:type="simple" xlink:actuate="onLoad" xlink:show="other" /><linearGradient id="linearGradientFF6666FF9696FFB6B6"><stop style="stop-color:#FF6666;stop-opacity:1;" offset="0.0" id="stopFF6666" /><stop style="stop-color:#FF9696;stop-opacity:1;" offset="0.5" id="stopFF9696" /><stop style="stop-color:#FFB6B6;stop-opacity:1;" offset="1.0" id="stopFFB6B6" /></linearGradient><linearGradient xmlns:xlink="http://www.w3.org/1999/xlink" xlink:href="#linearGradientFAFBFCFFFFCC" id="linearGradientFAFBFCFFFFCC_10865172" x1="0" y1="477.0" x2="0" y2="537.0" gradientUnits="userSpaceOnUse" xlink:type="simple" xlink:actuate="onLoad" xlink:show="other" /><linearGradient id="linearGradientFAFBFCFFFFCC"><stop style="stop-color:#FAFBFC;stop-opacity:1;" offset="0.0" id="stopFAFBFC" /><stop style="stop-color:#FFFFCC;stop-opacity:1;" offset="1.0" id="stopFFFFCC" /></linearGradient><linearGradient xmlns:xlink="http://www.w3.org/1999/xlink" xlink:href="#linearGradientF8FBFEEDF5FCDEEDFAD4E7F8E2E5E9" id="linearGradientF8FBFEEDF5FCDEEDFAD4E7F8E2E5E9_16308036" x1="0" y1="493.0" x2="0" y2="599.0" gradientUnits="userSpaceOnUse" xlink:type="simple" xlink:actuate="onLoad" xlink:show="other" /><linearGradient xmlns:xlink="http://www.w3.org/1999/xlink" xlink:href="#linearGradientF8FBFEEDF5FCDEEDFAD4E7F8E2E5E9" id="linearGradientF8FBFEEDF5FCDEEDFAD4E7F8E2E5E9_12077482" x1="0" y1="493.0" x2="0" y2="599.0" gradientUnits="userSpaceOnUse" xlink:type="simple" xlink:actuate="onLoad" xlink:show="other" /><linearGradient xmlns:xlink="http://www.w3.org/1999/xlink" xlink:href="#linearGradientFF6666FF9696FFB6B6" id="linearGradientFF6666FF9696FFB6B6_18937104" x1="0" y1="361.0" x2="0" y2="396.0" gradientUnits="userSpaceOnUse" xlink:type="simple" xlink:actuate="onLoad" xlink:show="other" /><linearGradient xmlns:xlink="http://www.w3.org/1999/xlink" xlink:href="#linearGradientF8FBFEEDF5FCDEEDFAD4E7F8E2E5E9" id="linearGradientF8FBFEEDF5FCDEEDFAD4E7F8E2E5E9_26960330" x1="0" y1="493.0" x2="0" y2="599.0" gradientUnits="userSpaceOnUse" xlink:type="simple" xlink:actuate="onLoad" xlink:show="other" /></defs></svg>
